<?xml version="1.0" encoding="UTF-8"?>
<svg version="1.1" xmlns="http://www.w3.org/2000/svg" width="64" height="64">
<path d="M0 0 C5.6991816 0.26340137 10.01670586 4.20215682 14.46484375 7.42578125 C16.41661531 8.80215617 18.36843867 10.17845763 20.3203125 11.5546875 C21.28114746 12.24062988 22.24198242 12.92657227 23.23193359 13.63330078 C25.7842894 15.4411266 28.35778731 17.20779106 30.953125 18.953125 C32.05732788 19.69695435 32.05732788 19.69695435 33.18383789 20.45581055 C34.54728332 21.37245928 35.91228083 22.28680496 37.27905273 23.19848633 C40.18769272 25.17788563 42.05007686 26.64738091 44.02734375 29.61328125 C44.46484375 32.48828125 44.46484375 32.48828125 44.02734375 35.61328125 C39.94160569 40.40600818 34.81419722 43.75423151 29.65234375 47.30078125 C28.76909424 47.91002441 27.88584473 48.51926758 26.97583008 49.14697266 C25.18187122 50.38227435 23.38638998 51.61536824 21.58935547 52.84619141 C19.2512755 54.45882937 16.93538204 56.09805287 14.625 57.75 C13.32205399 58.66338756 12.01869689 59.57618909 10.71484375 60.48828125 C10.13621582 60.91069092 9.55758789 61.33310059 8.96142578 61.76831055 C4.90168671 64.55915891 1.91205768 65.29154847 -2.97265625 64.61328125 C-5.24466397 61.20526967 -5.22517099 59.99704695 -5.23144531 55.99609375 C-5.23774963 54.8447998 -5.24405396 53.69350586 -5.25054932 52.50732422 C-5.24650085 51.26354004 -5.24245239 50.01975586 -5.23828125 48.73828125 C-5.2401947 47.46227051 -5.24210815 46.18625977 -5.24407959 44.87158203 C-5.24544173 42.17141196 -5.24274516 39.47160294 -5.23339844 36.77148438 C-5.22200395 33.31122295 -5.22856538 29.85127178 -5.24054337 26.39102173 C-5.24950965 23.09009711 -5.24323118 19.78920992 -5.23828125 16.48828125 C-5.24232971 15.24449707 -5.24637817 14.00071289 -5.25054932 12.71923828 C-5.244245 11.56794434 -5.23794067 10.41665039 -5.23144531 9.23046875 C-5.22985413 8.21581543 -5.22826294 7.20116211 -5.22662354 6.15576172 C-4.83166431 2.20180321 -3.92221519 0.80918237 0 0 Z " fill="#FFFFFF" transform="translate(5.97265625,-0.61328125)"/>
<path d="M0 0 C3.5625 -0.25 3.5625 -0.25 7 0 C8.77916467 1.77916467 8.12764835 4.38313299 8.12939453 6.7890625 C8.13254669 8.0270459 8.13569885 9.2650293 8.13894653 10.54052734 C8.13715675 11.90201859 8.1351058 13.26350951 8.1328125 14.625 C8.13348559 16.01123064 8.13445566 17.39746117 8.13571167 18.78369141 C8.1371884 21.69239422 8.1350349 24.60106637 8.13037109 27.50976562 C8.12467381 31.24596598 8.12795294 34.98209452 8.13394356 38.71829224 C8.13754985 41.58179266 8.13641027 44.44527593 8.13381577 47.30877686 C8.13314668 48.68674732 8.13397426 50.06471932 8.13629532 51.44268799 C8.13882292 53.36543754 8.13429024 55.28819252 8.12939453 57.2109375 C8.12859894 58.30712402 8.12780334 59.40331055 8.12698364 60.53271484 C8 63 8 63 7 64 C3.5625 64.25 3.5625 64.25 0 64 C-2.27200772 60.59198842 -2.25251474 59.3837657 -2.25878906 55.3828125 C-2.26509338 54.23151855 -2.27139771 53.08022461 -2.27789307 51.89404297 C-2.2738446 50.65025879 -2.26979614 49.40647461 -2.265625 48.125 C-2.26753845 46.84898926 -2.2694519 45.57297852 -2.27142334 44.25830078 C-2.27278548 41.55813071 -2.27008891 38.85832169 -2.26074219 36.15820312 C-2.2493477 32.6979417 -2.25590913 29.23799053 -2.26788712 25.77774048 C-2.2768534 22.47681586 -2.27057493 19.17592867 -2.265625 15.875 C-2.26967346 14.63121582 -2.27372192 13.38743164 -2.27789307 12.10595703 C-2.27158875 10.95466309 -2.26528442 9.80336914 -2.25878906 8.6171875 C-2.25719788 7.60253418 -2.25560669 6.58788086 -2.25396729 5.54248047 C-2 3 -2 3 0 0 Z " fill="#FFFFFF" transform="translate(55,0)"/>
</svg>
